P1
# handmade for CSE 891 Project 4, multiple objects and no noise
17 20
0 0 0 0 0 0 0 0 0 0  0 0 0 0 0 0 0
0 1  1  0 1  1  1  1  1  1   0 1  0 0 1  0 0
0 1  1  0 1  1  1  1  1  1   0 1  0 0 1  0 0
0 1  1  0 0 0 0 0 1  1   0 1  1  1  1  0 0
0 1  1  0 1  1  1  0 1  1   0 1  1  0 0 0 0
0 1  1  0 1  0 1  0 1  1   0 1  1  1  1  0 0
0 1  1  0 1  1  1  0 1  1   0 0 0 0 0 0 0
0 1  1  0 0 0 0 0 1  1   0 1  1  1  0 1  0
0 1  1  0 0 0 1  0 1  1   0 0 0 1  0 1  0
0 1  1  1  1  1  1  0 1  1   0 0 0 1  1  1  0
0 1  1  1  1  1  1  0 1  1   0 1  1  1  1  1  0
0 0 0 0 0 0 0 0 0 0  0 0 0 0 0 0 0
0 1  1  0 0 0 0 0 0 0  0 0 0 0 0 0 0
0 0 1  1  1  0 0 0 0 0  0 0 0 0 0 0 0
0 0 0 1  1  1  0 0 0 0  1  1  0 0 0 0 0
0 0 0 0 1  1  1  0 0 1   1  1  0 0 0 0 0
0 0 0 0 0 1  1  0 1  1   1  0 0 0 0 0 0
0 0 0 0 0 0 1  1  1  1   0 0 0 0 0 0 0
0 0 0 0 0 0 0 1  0 0  0 0 0 0 0 0 0
0 0 0 0 0 0 0 0 0 0  0 0 0 0 0 0 0 